<?xml version="1.0" standalone="no"?>
<!DOCTYPE svg PUBLIC "-//W3C//DTD SVG 20010904//EN"
 "http://www.w3.org/TR/2001/REC-SVG-20010904/DTD/svg10.dtd">
<svg version="1.0" xmlns="http://www.w3.org/2000/svg"
 width="500.000000pt" height="500.000000pt" viewBox="0 0 500.000000 500.000000"
 preserveAspectRatio="xMidYMid meet">

<g transform="translate(0.000000,500.000000) scale(0.100000,-0.100000)"
fill="#000000" stroke="none">
<path d="M3771 2899 c-5 -13 -39 -93 -74 -176 -64 -150 -65 -153 -41 -153 16
0 22 4 18 14 -3 8 4 37 17 65 l21 51 63 0 62 0 22 -56 c11 -31 19 -60 15 -65
-3 -5 11 -9 31 -9 34 0 35 1 21 23 -8 12 -42 90 -76 172 -34 83 -64 152 -66
154 -2 2 -8 -7 -13 -20z m45 -155 c6 -23 4 -24 -45 -24 l-51 0 21 53 c12 28
24 58 27 66 6 15 35 -44 48 -95z"/>
<path d="M1105 2740 l0 -171 90 3 c78 3 90 5 93 21 3 16 1 17 -16 8 -12 -6
-44 -11 -72 -11 l-51 0 3 160 3 160 -25 0 -25 0 0 -170z"/>
<path d="M1425 2740 l0 -170 25 0 25 0 0 170 0 170 -25 0 -25 0 0 -170z"/>
<path d="M1650 2769 l5 -141 31 -27 c43 -38 95 -47 142 -24 52 26 62 52 62
175 0 59 4 118 10 132 9 24 8 26 -20 26 -28 0 -29 -2 -20 -26 13 -33 13 -189
0 -233 -12 -43 -36 -60 -83 -61 -27 0 -45 7 -63 25 -25 25 -25 28 -22 160 l3
135 -25 0 -25 0 5 -141z"/>
<path d="M2065 2741 l0 -171 70 1 c83 1 124 14 165 52 51 49 63 125 29 193
-31 65 -75 87 -178 92 l-86 4 0 -171z m164 131 c74 -37 100 -122 63 -204 -23
-53 -67 -78 -136 -78 l-46 0 0 150 0 150 43 0 c23 0 57 -8 76 -18z"/>
<path d="M2500 2891 c13 -26 13 -276 0 -302 -9 -16 -7 -19 13 -19 l25 0 -23
-62 c-12 -35 -33 -107 -45 -160 l-22 -97 -56 -41 -55 -42 7 56 c3 31 3 56 -1
56 -5 -1 -20 -19 -36 -41 -33 -48 -49 -43 -41 14 4 31 3 38 -5 27 -6 -8 -11
-32 -11 -53 0 -48 25 -61 53 -26 l20 24 -6 -42 c-3 -29 -16 -56 -42 -85 -62
-73 -107 -177 -113 -261 -3 -59 -1 -75 12 -86 43 -36 96 84 146 332 10 52 17
62 62 98 28 22 52 38 55 36 2 -2 -4 -35 -12 -72 -21 -91 -16 -128 9 -57 17 51
28 62 42 41 10 -17 55 -1 101 37 24 20 43 34 43 32 0 -2 -9 -44 -19 -93 -32
-150 -34 -168 -20 -163 7 2 14 20 15 39 2 19 21 116 42 216 29 129 50 199 75
249 43 86 55 134 33 134 -24 0 -46 -52 -81 -194 -31 -123 -35 -134 -80 -184
-64 -71 -140 -91 -81 -22 28 34 34 70 12 70 -8 0 -26 -14 -39 -31 l-24 -31 18
83 c10 47 36 123 59 171 45 97 50 133 20 141 -19 5 -20 14 -20 138 0 73 2 130
4 128 4 -4 54 -114 108 -239 l19 -44 55 124 c29 69 58 134 64 145 6 14 9 -25
7 -123 l-2 -142 25 0 25 0 0 170 0 171 -25 -3 c-20 -3 -30 -18 -63 -93 -21
-49 -47 -110 -58 -135 l-20 -45 -61 138 c-58 131 -62 137 -89 137 -26 0 -28
-2 -19 -19z m39 -390 c-6 -18 -13 -30 -15 -28 -2 2 1 18 7 36 6 18 13 30 15
28 2 -2 -1 -18 -7 -36z m182 2 c-12 -20 -14 -14 -5 12 4 9 9 14 11 11 3 -2 0
-13 -6 -23z m-211 -282 c0 -5 -9 -19 -20 -32 l-21 -24 16 33 c15 31 25 41 25
23z m-234 -255 c-33 -137 -73 -223 -93 -202 -15 15 -2 120 21 178 30 73 90
165 94 144 2 -8 -8 -62 -22 -120z"/>
<path d="M2976 2883 c10 -16 35 -59 57 -96 36 -65 38 -73 36 -145 -1 -48 -9
-92 -21 -118 -10 -23 -31 -97 -47 -164 -29 -119 -63 -191 -97 -204 -11 -4 -14
5 -14 41 l0 47 -36 -35 -37 -34 7 45 7 44 -50 -52 c-64 -66 -75 -67 -69 -2 5
51 -5 68 -16 28 -23 -87 22 -121 78 -60 l18 21 18 -22 c18 -21 19 -21 38 -4
20 18 21 18 24 -9 4 -38 20 -40 58 -7 28 23 32 24 27 7 -31 -101 -24 -163 8
-69 17 52 19 54 36 39 15 -14 23 -15 47 -5 34 14 129 108 119 117 -4 4 -25
-13 -47 -38 -38 -44 -94 -77 -107 -64 -4 3 3 16 14 29 27 29 37 63 22 73 -8 4
-23 -5 -41 -25 -15 -17 -28 -29 -28 -27 0 33 48 188 75 243 19 40 38 86 41
102 4 17 9 31 13 31 3 0 5 34 3 75 -3 71 -2 78 34 137 20 35 48 78 61 96 l24
32 -25 0 c-17 0 -26 -6 -26 -15 0 -17 -71 -145 -80 -145 -9 0 -80 128 -80 145
0 10 -10 15 -31 15 l-31 0 18 -27z m50 -689 c-10 -14 -20 -23 -23 -20 -3 3 2
17 11 32 10 14 20 23 23 20 3 -3 -2 -17 -11 -32z"/>
<path d="M3350 2891 c5 -11 10 -79 10 -151 0 -72 -5 -140 -10 -151 -10 -18 -7
-19 85 -19 89 0 95 1 95 20 0 17 -3 19 -19 10 -11 -5 -43 -10 -71 -10 l-51 0
3 160 3 160 -28 0 c-24 0 -26 -2 -17 -19z"/>
<path d="M1954 2573 c-97 -101 -105 -223 -15 -223 24 0 24 1 -9 18 -43 21 -48
46 -22 105 22 50 78 117 98 117 20 0 18 -27 -10 -138 -73 -288 -93 -446 -61
-472 25 -21 61 13 136 125 78 117 259 453 259 481 0 10 -42 -60 -93 -156 -178
-335 -266 -465 -295 -435 -20 20 11 216 74 469 14 55 23 110 19 123 -8 34 -39
29 -81 -14z"/>
<path d="M2710 2300 c0 -5 5 -10 10 -10 6 0 10 5 10 10 0 6 -4 10 -10 10 -5 0
-10 -4 -10 -10z"/>
</g>
</svg>
